<svg width="1293" height="1080" viewBox="0 0 1293 1080" fill="none" xmlns="http://www.w3.org/2000/svg">
<path fill-rule="evenodd" clip-rule="evenodd" d="M1500 580C1500 994.214 1164.21 1330 750 1330C335.786 1330 0 994.214 0 580C0 165.786 335.786 -170 750 -170C1164.21 -170 1500 165.786 1500 580ZM698 862C844.36 862 963 743.355 963 597C963 450.645 844.36 332 698 332C551.64 332 433 450.645 433 597C433 743.355 551.64 862 698 862ZM348.113 606C352.887 795.14 507.71 947 698 947C891.3 947 1048 790.3 1048 597C1048 403.7 891.3 247 698 247C592.1 247 497.18 294.035 433 368.354V26H347V606H348.113Z" fill="#406C80" fill-opacity="0.2"/>
</svg>
