<svg width="30" height="30" viewBox="0 0 30 30" fill="none" xmlns="http://www.w3.org/2000/svg">
<path fill-rule="evenodd" clip-rule="evenodd" d="M30 15C30 23.2843 23.284 30 15 30C6.716 30 0 23.2843 0 15C0 9.2439 3.242 4.2451 8 1.7301V15.5V16H8.01601C8.27401 19.909 11.526 23 15.5 23C19.642 23 23 19.6421 23 15.5C23 11.3579 19.642 8 15.5 8C13.812 8 12.253 8.5579 11 9.4995V0.5392C12.273 0.1878 13.615 0 15 0C23.284 0 30 6.7157 30 15ZM11 15.5C11 17.9853 13.015 20 15.5 20C17.985 20 20 17.9853 20 15.5C20 13.0147 17.985 11 15.5 11C13.015 11 11 13.0147 11 15.5Z" fill="white"/>
</svg>
